<svg version="1.1" id="Layer_1" xmlns="http://www.w3.org/2000/svg" xmlns:xlink="http://www.w3.org/1999/xlink" x="0px" y="0px"
	 width="100%" viewBox="0 0 1280 1280" enable-background="new 0 0 1280 1280" xml:space="preserve">
<path fill="#010000" opacity="1.000000" stroke="none" 
	d="
M804.000000,1281.000000 
	C537.500000,1281.000000 271.500000,1280.990845 5.500036,1281.093384 
	C1.750845,1281.094727 0.906191,1280.249023 0.907064,1276.500000 
	C1.005783,852.833313 1.005783,429.166656 0.907064,5.500021 
	C0.906191,1.750944 1.750944,0.906189 5.500021,0.907062 
	C429.166656,1.005797 852.833313,1.005797 1276.500000,0.907062 
	C1280.249023,0.906189 1281.093872,1.750943 1281.093018,5.500021 
	C1280.994263,429.166656 1280.994263,852.833313 1281.093018,1276.500000 
	C1281.093872,1280.249023 1280.249390,1281.096558 1276.499878,1281.093994 
	C1119.166626,1280.984497 961.833313,1281.000000 804.000000,1281.000000 
z"/>
<path fill="#B61B0F" opacity="1.000000" stroke="none" 
	d="
M400.477661,799.481567 
	C429.011902,839.651184 465.171356,870.479065 508.645050,892.718445 
	C536.646179,907.042664 566.625549,915.132446 597.561951,920.017029 
	C602.848755,920.851807 608.110046,921.886902 613.233521,919.354614 
	C619.028259,916.490601 622.459900,912.404785 622.450256,905.361511 
	C622.397583,866.866821 622.698975,828.371887 622.715881,789.876892 
	C622.735229,745.896851 622.583130,701.916687 622.513245,657.936584 
	C622.511902,657.106079 622.513489,656.255737 622.681519,655.449707 
	C622.898987,654.406860 622.302734,652.877625 623.882751,652.533142 
	C624.992859,652.291138 625.598083,653.397705 626.266418,654.086426 
	C632.414978,660.423096 638.538635,666.784058 644.669922,673.137512 
	C670.229004,699.622925 695.784607,726.111633 721.361084,752.580200 
	C722.353760,753.607544 723.308777,755.392517 724.960144,754.684937 
	C726.627502,753.970581 725.872009,752.019348 725.877197,750.622192 
	C725.932556,735.789368 726.015137,720.955200 725.848572,706.124084 
	C725.806763,702.401855 726.578247,700.655945 730.776062,700.789856 
	C739.433594,701.065979 748.108215,700.972534 756.771606,700.808472 
	C760.024536,700.746826 761.152405,701.913940 761.145630,705.142578 
	C761.074585,738.808350 761.079346,772.474365 761.143066,806.140198 
	C761.148865,809.224792 759.898865,810.173889 756.956848,810.141479 
	C746.958374,810.031189 736.957214,810.041626 726.958496,810.144287 
	C724.160034,810.173035 722.383057,808.885925 720.570557,806.946289 
	C701.695374,786.745972 682.744995,766.615723 663.811096,746.470215 
	C662.785583,745.379089 661.796997,744.233948 660.654785,743.276672 
	C659.218689,742.073181 658.214355,742.354675 658.125000,744.394470 
	C658.081299,745.392639 658.104187,746.393921 658.104309,747.393799 
	C658.109741,797.892639 658.432617,848.394714 657.928467,898.888428 
	C657.778259,913.935303 667.895935,923.188965 683.242371,920.341614 
	C712.351685,914.940674 740.849731,908.053162 767.635803,895.039246 
	C810.974365,873.983337 847.229980,844.352112 876.245300,805.891113 
	C896.901550,778.510498 912.521362,748.544922 922.266418,715.595337 
	C923.210449,712.403564 924.226929,709.237244 924.352905,705.852844 
	C924.764771,694.787170 916.851807,685.252625 905.789062,685.129578 
	C885.304504,684.901794 864.811462,685.467407 844.321594,685.670532 
	C841.837585,685.695190 840.612488,686.765625 840.681580,689.291138 
	C840.722595,690.789612 840.662048,692.290588 840.661621,693.790466 
	C840.650391,730.622986 840.563660,767.455933 840.729614,804.287659 
	C840.750305,808.879578 839.502747,810.408936 834.846252,810.207520 
	C826.695068,809.854858 818.508362,809.881042 810.354614,810.204407 
	C805.851257,810.382935 804.762756,808.747131 804.779663,804.454468 
	C804.926331,767.289185 804.861694,730.122986 804.856201,692.957092 
	C804.855103,685.682129 804.847473,685.661621 797.768738,685.659546 
	C775.769165,685.653137 753.769653,685.673889 731.770081,685.661438 
	C725.383301,685.657837 725.255371,685.503052 725.254517,679.322205 
	C725.253357,671.489075 725.433289,663.650574 725.193054,655.824951 
	C725.071411,651.862000 726.453613,650.712463 730.375916,650.723206 
	C788.207581,650.881592 846.039612,650.910522 903.871582,650.944092 
	C931.369812,650.960083 958.869019,651.030334 986.365479,650.804504 
	C991.215881,650.764648 992.015076,652.125671 991.636536,656.814819 
	C990.011047,676.952881 986.708008,696.765381 981.605774,716.299377 
	C973.257507,748.260376 960.653503,778.494019 943.660522,806.764221 
	C909.409119,863.746033 862.150269,907.292358 804.436584,939.780151 
	C766.755432,960.991272 726.085083,972.880310 683.343872,978.185303 
	C608.744690,987.444519 538.433044,973.899170 472.446075,938.093140 
	C435.164276,917.863159 403.113342,891.150208 375.320953,859.087891 
	C342.911804,821.699585 318.479187,779.937866 303.878754,732.566406 
	C296.192627,707.628540 291.935822,682.070068 289.999054,656.074158 
	C289.674042,651.711975 291.248169,650.763489 295.297791,650.766479 
	C395.793365,650.840576 496.289001,650.826721 596.784546,650.743591 
	C604.641296,650.737122 604.601318,649.616638 604.638306,658.530090 
	C604.667358,665.529907 604.382812,672.543213 604.737610,679.525146 
	C604.991821,684.528015 602.898804,685.754272 598.289185,685.738037 
	C561.290405,685.607910 524.291016,685.657532 487.291809,685.658875 
	C485.125854,685.658936 482.955231,685.636230 480.794739,685.761475 
	C471.489777,686.300598 466.628784,691.242249 466.870941,699.845093 
	C467.096649,707.863037 472.561768,712.964722 481.350677,712.991882 
	C507.849884,713.073669 534.352051,712.821228 560.847778,713.138550 
	C578.222534,713.346497 593.303467,719.170044 603.331055,734.239990 
	C620.224915,759.628906 610.665466,803.161499 570.758789,809.174438 
	C566.448242,809.823914 562.161011,810.112732 557.828613,810.113037 
	C527.662537,810.115479 497.496277,810.063782 467.330688,810.182983 
	C463.522369,810.198059 460.839722,809.292542 458.455475,806.057983 
	C452.138336,797.487976 445.397156,789.231506 438.903229,780.789856 
	C437.843750,779.412659 435.528717,778.118225 436.468384,776.252258 
	C437.520386,774.163208 440.090118,775.226440 441.982147,775.223816 
	C480.814453,775.169983 519.646912,775.189148 558.479309,775.155212 
	C566.586853,775.148071 571.693542,771.359253 573.203796,764.447021 
	C574.919983,756.592102 570.414917,749.584961 562.528564,748.090942 
	C560.422302,747.691833 558.218506,747.706360 556.059265,747.704102 
	C531.893127,747.678467 507.726685,747.750549 483.560852,747.660034 
	C470.896973,747.612610 458.661194,745.835571 448.107361,737.902161 
	C434.603577,727.751038 429.157043,713.960999 429.463531,697.454224 
	C429.538757,693.404053 432.291046,688.150879 429.568207,685.710022 
	C427.300232,683.676880 421.964081,684.970337 417.986328,684.957764 
	C404.653412,684.915710 391.320251,684.932434 377.987213,684.956909 
	C361.193085,684.987732 353.633392,695.521301 358.266937,711.795166 
	C367.253815,743.358582 381.366089,772.411926 400.477661,799.481567 
z"/>
<path fill="#F3B304" opacity="1.000000" stroke="none" 
	d="
M770.977783,482.856079 
	C779.952454,498.097321 781.365417,514.698608 781.838562,531.408691 
	C782.243896,545.727295 782.075012,560.062622 782.124512,574.390686 
	C782.153992,582.930237 780.425110,584.671814 772.008972,584.672485 
	C715.526917,584.676880 659.044861,584.674072 602.562805,584.673035 
	C571.739258,584.672485 540.915710,584.675537 510.092133,584.665955 
	C501.860718,584.663391 500.066132,582.850403 500.003265,574.823120 
	C499.864960,557.159546 500.183685,539.502136 501.086823,521.864929 
	C501.837036,507.214996 505.536560,493.327606 512.772278,480.463318 
	C516.203491,474.363007 516.158264,474.339050 509.408112,471.868652 
	C506.908386,470.953827 504.345703,470.176971 501.926575,469.083160 
	C496.404633,466.586334 494.439758,462.787628 495.481506,457.062958 
	C496.783600,449.907532 500.133636,446.291534 506.292480,446.018860 
	C512.279358,445.753815 518.310120,445.523560 524.272766,445.954407 
	C529.628418,446.341370 532.855896,444.539307 535.531860,439.810120 
	C543.898010,425.024841 556.340393,415.403687 573.121338,411.669769 
	C575.756287,411.083496 578.373413,410.843994 581.043274,410.844025 
	C619.864136,410.844452 658.685242,410.919647 697.505859,410.812225 
	C718.581726,410.753876 734.310791,420.296967 745.102661,437.780609 
	C748.966003,444.039490 753.123474,446.762024 760.381836,445.926666 
	C765.471863,445.340820 770.704712,445.732086 775.856079,446.012329 
	C781.771118,446.334198 784.840820,449.521454 786.275269,456.222870 
	C787.588318,462.356659 785.908264,466.634766 780.765381,469.254517 
	C777.964661,470.681213 774.991821,471.950378 771.950073,472.680542 
	C767.558228,473.734802 766.393555,475.646606 769.086975,479.483948 
	C769.752014,480.431427 770.230286,481.510010 770.977783,482.856079 
z"/>
<path fill="#CBCBCB" opacity="1.000000" stroke="none" 
	d="
M426.786316,350.832581 
	C469.227661,318.731812 516.070557,297.163361 567.784058,285.909210 
	C615.509033,275.523132 663.240906,275.268158 710.933716,285.163177 
	C765.059814,296.392975 813.949768,319.244324 857.708496,353.095703 
	C861.512939,356.038727 862.578125,357.894073 859.295227,362.290588 
	C849.941467,374.817230 841.140198,387.760315 832.284363,400.651428 
	C830.584106,403.126526 829.667969,403.679260 827.036987,401.536377 
	C791.091553,372.258270 750.522827,352.288757 705.265381,342.175507 
	C671.359802,334.598969 637.130920,332.986053 602.604675,337.559418 
	C547.457886,344.864319 498.397491,366.183685 455.204376,401.090912 
	C452.190399,403.526703 451.033356,402.686462 449.197968,400.013153 
	C440.439972,387.256866 431.750061,374.441376 422.539642,362.014832 
	C419.337891,357.695099 419.703766,355.274567 424.135284,352.871643 
	C425.001495,352.401947 425.730621,351.679443 426.786316,350.832581 
z"/>
<path fill="#FB671F" opacity="1.000000" stroke="none" 
	d="
M328.852264,467.765808 
	C345.636932,435.430206 366.666382,406.661011 392.083099,381.067688 
	C394.784515,378.347565 396.109192,377.730377 398.598755,381.406952 
	C407.743042,394.911133 417.161591,408.232910 426.674347,421.481598 
	C428.671265,424.262726 428.240784,425.850494 426.043640,428.206085 
	C386.904358,470.168457 361.828186,519.334473 351.149414,575.727783 
	C348.736084,588.472290 346.785767,601.355286 346.929413,614.379150 
	C346.983582,619.293030 345.260406,620.477478 340.569519,620.360474 
	C325.418945,619.982727 310.256073,619.953735 295.099548,620.049133 
	C290.996979,620.074951 289.688538,618.862976 289.915833,614.641846 
	C292.090057,574.263245 300.140106,535.176453 315.178314,497.589111 
	C319.198608,487.540497 323.641235,477.680786 328.852264,467.765808 
z"/>
<path fill="#056938" opacity="1.000000" stroke="none" 
	d="
M991.241089,619.238831 
	C973.435425,620.543640 955.949158,619.771545 938.474670,620.098145 
	C935.846252,620.147217 935.084412,618.797974 934.968262,616.395081 
	C933.692749,590.015747 929.269592,564.192383 921.055847,539.061218 
	C912.528625,512.971130 900.822205,488.439453 885.414001,465.665680 
	C876.345886,452.262634 866.269470,439.694977 855.259705,427.875183 
	C853.140991,425.600616 853.535034,424.076416 855.083862,421.883636 
	C864.395386,408.699768 873.699280,395.508545 882.801819,382.180481 
	C885.283569,378.546600 887.069641,378.547150 890.084167,381.610596 
	C910.009705,401.859863 927.482788,423.979736 942.157593,448.333801 
	C962.646179,482.336548 976.424011,518.939453 984.523132,557.692078 
	C988.367737,576.087646 991.105713,594.688843 991.947510,613.509033 
	C992.028137,615.310913 991.711426,617.130554 991.241089,619.238831 
z"/>
<path fill="#EDB007" opacity="1.000000" stroke="none" 
	d="
M602.258057,401.806580 
	C594.757202,401.822937 594.699707,401.789398 598.130798,395.910522 
	C609.449707,376.516479 605.196655,378.260651 628.496765,378.227203 
	C640.305481,378.210236 652.116272,378.356537 663.922058,378.169647 
	C669.904785,378.074951 674.103088,380.354706 676.825012,385.689026 
	C678.711182,389.385345 680.868958,392.943481 682.920898,396.554565 
	C685.892761,401.784668 685.898743,401.808929 680.057495,401.810791 
	C654.277893,401.818970 628.498291,401.809814 602.258057,401.806580 
z"/>
<path fill="#EBAF0C" opacity="1.000000" stroke="none" 
	d="
M266.509460,822.059021 
	C262.350769,812.986145 258.287415,804.236755 254.356094,795.428406 
	C251.060684,788.044800 253.165527,782.363831 260.374695,778.963623 
	C266.697906,775.981201 273.040497,773.037170 279.420685,770.179138 
	C286.891663,766.832458 292.890961,768.983765 296.366241,776.331421 
	C300.065460,784.152588 303.376923,792.164246 307.276031,799.881348 
	C309.964722,805.202820 305.348511,804.915833 302.937531,806.544373 
	C299.762970,808.688660 298.334320,807.211182 297.053711,804.266968 
	C294.067139,797.400696 290.834198,790.641968 287.798676,783.796387 
	C286.745514,781.421448 285.865326,779.798767 282.684723,781.297424 
	C279.606140,782.747986 280.656677,784.471863 281.563507,786.457520 
	C284.605164,793.117554 287.319672,799.955505 290.807770,806.372925 
	C293.077881,810.549561 290.766449,811.404724 287.865387,812.812622 
	C284.736145,814.331177 282.420166,815.455994 280.656006,810.831787 
	C278.171478,804.319214 274.961182,798.079529 271.968994,791.766846 
	C270.997589,789.717407 270.813599,786.706543 266.842896,788.522278 
	C263.089600,790.238708 264.777954,792.198242 265.776062,794.367676 
	C268.836639,801.019836 271.704071,807.772217 275.056702,814.274170 
	C276.916534,817.881104 276.717468,820.151306 272.561127,821.121277 
	C270.611389,821.576294 269.069275,824.131958 266.509460,822.059021 
z"/>
<path fill="#EBAF0C" opacity="1.000000" stroke="none" 
	d="
M280.596375,731.244385 
	C282.990479,739.100708 285.130066,746.621582 287.515015,754.063782 
	C288.481934,757.081055 288.139587,759.042725 284.647583,759.241455 
	C282.021637,759.390930 278.611145,763.805786 277.029480,757.552917 
	C275.032440,749.657837 272.431549,741.915771 270.104187,734.103821 
	C269.373840,731.652222 268.923584,729.272888 265.178284,730.433838 
	C261.448090,731.590210 262.980408,733.880188 263.556976,735.920776 
	C264.958557,740.881165 266.590363,745.776123 268.016205,750.730103 
	C270.548157,759.527161 267.384308,764.491150 257.448090,767.480835 
	C248.794968,770.084412 243.285843,767.421631 240.707840,759.159729 
	C237.982925,750.426941 235.752914,741.527527 232.718750,732.907776 
	C230.581772,726.836853 235.445786,727.999390 238.124191,726.655945 
	C241.975998,724.723938 242.572952,727.387573 243.375839,730.104736 
	C245.731827,738.077698 248.265335,745.999329 250.528259,753.997986 
	C251.202271,756.380371 251.814590,757.352844 254.567764,756.388489 
	C257.204468,755.464783 257.904724,754.487549 256.979126,751.738831 
	C255.069046,746.066406 253.454727,740.288940 251.875092,734.511963 
	C250.106461,728.043762 253.078583,722.320801 259.360596,720.302490 
	C262.648193,719.246277 265.903687,717.793640 269.546234,718.279114 
	C276.929962,719.263184 278.923126,724.851379 280.596375,731.244385 
z"/>
<path fill="#EBAF0C" opacity="1.000000" stroke="none" 
	d="
M1025.971069,775.736389 
	C1027.192627,772.228516 1028.183105,769.046936 1029.461548,765.985657 
	C1030.493408,763.514832 1029.584351,762.424927 1027.340454,761.493652 
	C1024.766724,760.425476 1023.724792,761.541199 1022.949951,763.765198 
	C1021.035278,769.261047 1019.109070,774.754944 1017.053284,780.198853 
	C1014.739502,786.325928 1010.685242,789.058411 1004.280396,788.034546 
	C993.089661,786.245483 985.990662,780.554321 991.176819,767.699890 
	C994.406189,759.695557 997.260620,751.524292 999.903198,743.305786 
	C1001.133301,739.480164 1003.341614,740.338379 1005.517212,741.551514 
	C1007.608765,742.717712 1012.349243,741.617737 1010.345154,746.858398 
	C1007.376343,754.621643 1004.708069,762.499451 1001.875854,770.315430 
	C1001.014648,772.692078 999.731689,774.718506 1003.560791,776.146729 
	C1007.344543,777.557861 1007.332703,774.987671 1008.087097,772.938232 
	C1010.037415,767.640442 1011.848022,762.289246 1013.893494,757.028992 
	C1016.449280,750.456238 1022.032104,747.851929 1028.712524,749.959167 
	C1030.451660,750.507690 1032.190552,751.090271 1033.863403,751.810364 
	C1040.456299,754.648071 1042.999634,759.960938 1040.687256,766.795837 
	C1037.596436,775.931580 1034.072388,784.921936 1031.039917,794.075867 
	C1029.697388,798.128357 1027.367920,797.001648 1024.855591,795.945374 
	C1022.327759,794.882568 1018.519104,794.899963 1020.640930,790.128296 
	C1022.662659,785.581848 1024.145020,780.795532 1025.971069,775.736389 
z"/>
<path fill="#ECB00B" opacity="1.000000" stroke="none" 
	d="
M422.032623,938.159302 
	C422.892212,937.167542 423.512573,935.941528 424.268127,935.851624 
	C427.714142,935.441589 435.771576,943.234192 435.950134,946.857788 
	C436.423462,956.462341 436.934143,966.065002 437.432709,975.721130 
	C439.720062,975.775269 440.033081,974.001099 440.747589,972.906799 
	C443.569305,968.585449 446.257812,964.175842 448.942566,959.766541 
	C453.208588,952.760315 454.292633,952.619019 460.710571,957.876282 
	C462.167236,959.069458 462.457062,959.886597 461.405914,961.557800 
	C454.227295,972.970520 447.158508,984.452332 440.037201,995.901306 
	C439.531525,996.714355 439.185638,997.721924 437.952179,997.826477 
	C435.316742,998.049988 426.834229,990.801025 426.667114,988.086670 
	C426.043823,977.962341 425.449707,967.836304 424.800751,956.976501 
	C421.615082,959.696472 420.306213,963.086304 418.386780,965.983643 
	C416.273315,969.173767 414.068359,972.348755 412.387421,975.768311 
	C410.354279,979.904358 408.396393,980.064758 404.430176,977.710266 
	C400.174744,975.184204 399.916199,973.312317 402.517303,969.358032 
	C409.194580,959.206787 415.438507,948.770569 422.032623,938.159302 
z"/>
<path fill="#EBAF0C" opacity="1.000000" stroke="none" 
	d="
M940.830811,858.800537 
	C946.249023,851.182434 951.641357,843.984558 956.584473,836.490417 
	C959.252197,832.445923 961.129333,835.023560 963.347717,836.566772 
	C965.666565,838.179810 968.209045,839.367676 965.350220,843.001770 
	C960.520813,849.140564 956.214111,855.688110 951.589478,861.991760 
	C950.071472,864.060791 949.639343,865.479614 952.215698,867.204834 
	C954.692566,868.863586 955.892639,868.163574 957.374146,866.002747 
	C961.700134,859.693237 966.386169,853.624084 970.559143,847.218445 
	C973.476562,842.740234 975.396729,846.229370 977.671082,847.602905 
	C980.045593,849.037048 982.197876,850.127808 979.456665,853.590210 
	C974.610291,859.711792 970.404480,866.336304 965.759277,872.623657 
	C964.190735,874.746704 964.399292,875.899353 966.573486,877.348694 
	C968.592224,878.694519 969.876892,878.950256 971.428284,876.700928 
	C976.055969,869.991333 981.102783,863.559692 985.510925,856.713684 
	C988.531555,852.022522 990.511108,855.585449 992.971619,856.937378 
	C995.794312,858.488342 996.727844,859.991882 994.371704,863.066956 
	C989.013123,870.060547 984.118164,877.407166 978.916748,884.524048 
	C974.087524,891.131714 967.939026,892.114441 961.202209,887.412781 
	C955.474976,883.415588 949.769897,879.380493 944.173584,875.203308 
	C938.263123,870.791809 937.237183,865.753052 940.830811,858.800537 
z"/>
<path fill="#EDB00B" opacity="1.000000" stroke="none" 
	d="
M741.686035,992.919312 
	C744.908813,991.813171 746.421814,992.051392 747.125916,995.739075 
	C749.463013,1007.979126 752.200195,1020.146545 754.997375,1032.292603 
	C755.854065,1036.012695 754.975708,1037.214722 751.104004,1038.364868 
	C744.505493,1040.324829 740.045715,1038.734863 735.513000,1033.744995 
	C730.077209,1027.760986 723.773010,1022.565735 717.654297,1016.850952 
	C716.356018,1019.011841 717.481445,1020.619080 717.829834,1022.273804 
	C718.891968,1027.318604 719.903076,1032.374390 720.977234,1037.416626 
	C722.411926,1044.151123 719.842102,1046.868042 712.821045,1046.266113 
	C711.131104,1046.121216 711.024109,1045.133179 710.781250,1044.014404 
	C707.890442,1030.698608 704.999512,1017.382812 702.134888,1004.061340 
	C701.708801,1002.080078 702.584534,1001.492859 704.585938,1000.768860 
	C711.774414,998.168335 717.294189,999.267456 722.532043,1005.369446 
	C727.561157,1011.228333 733.779724,1016.066284 740.401062,1022.211792 
	C739.658264,1014.131775 737.741821,1007.555908 736.361755,1000.893494 
	C735.029785,994.463074 734.976257,994.474182 741.686035,992.919312 
z"/>
<path fill="#EBAF0C" opacity="1.000000" stroke="none" 
	d="
M292.646423,845.159790 
	C296.499451,851.229614 299.891693,857.172424 303.851868,862.709045 
	C306.580811,866.524231 303.937897,867.561401 301.494171,868.988953 
	C299.228302,870.312683 297.214447,872.983276 294.739532,868.722351 
	C290.232574,860.962891 285.134064,853.549744 280.450958,845.889099 
	C276.075989,838.732483 277.521973,833.020142 284.610748,828.495117 
	C290.359283,824.825500 296.091217,821.128052 301.892456,817.543152 
	C308.948395,813.182922 314.884705,814.491394 319.418091,821.483582 
	C324.121918,828.738586 328.533539,836.185852 333.342407,843.368652 
	C335.304657,846.299561 334.636780,847.875977 331.719635,849.052368 
	C329.276245,850.037781 327.126068,854.311035 324.199860,849.252625 
	C320.288696,842.491638 315.795837,836.069214 311.790131,829.359741 
	C310.211945,826.716248 308.871613,826.448853 306.279236,828.041382 
	C303.308350,829.866394 304.790344,831.419067 305.956940,833.249329 
	C310.071014,839.703735 313.979950,846.297974 318.317963,852.597290 
	C321.216187,856.805908 317.324249,857.212402 315.382507,858.655090 
	C313.295410,860.205627 311.307648,862.200806 309.072540,858.260864 
	C305.467072,851.905273 301.348053,845.837952 297.365967,839.700806 
	C296.129852,837.795715 295.519470,835.018250 291.858215,837.222290 
	C287.907227,839.600769 290.407104,841.458374 291.596222,843.614014 
	C291.836517,844.049622 292.148834,844.445435 292.646423,845.159790 
z"/>
<path fill="#EBAF0C" opacity="1.000000" stroke="none" 
	d="
M546.929077,1021.016174 
	C541.556702,1020.732727 541.339355,1023.133545 542.841370,1027.015625 
	C544.333008,1030.871094 545.408325,1034.887695 546.808655,1039.280396 
	C542.349243,1039.105103 538.809937,1037.223511 535.045410,1036.332031 
	C533.488098,1035.963379 533.278198,1034.534546 532.872925,1033.257202 
	C531.514221,1028.974365 530.064880,1024.720093 528.740173,1020.427246 
	C528.123779,1018.429688 527.234070,1017.007019 525.037354,1016.245361 
	C519.167358,1014.210205 518.968811,1014.219482 517.209412,1020.170288 
	C516.926514,1021.127014 516.547974,1022.055054 516.247925,1023.007080 
	C514.065369,1029.932495 511.570160,1030.834473 504.974548,1027.391724 
	C503.259888,1026.496704 503.523956,1025.477051 503.926086,1024.146729 
	C505.996002,1017.298950 508.124664,1010.467834 510.085114,1003.588806 
	C510.747192,1001.265686 511.667664,1000.883850 514.008362,1001.639282 
	C522.243164,1004.297119 530.600220,1006.574402 538.851746,1009.183105 
	C541.865723,1010.135986 543.844910,1010.750977 545.137695,1006.604309 
	C546.548523,1002.079407 543.621582,1001.947205 541.013733,1001.154297 
	C533.213867,998.782959 525.462219,996.203369 517.559631,994.235535 
	C511.640076,992.761475 515.660339,989.472168 515.816956,986.969177 
	C516.010620,983.872620 517.549561,982.665039 520.850098,983.712952 
	C530.361816,986.732971 539.973633,989.437927 549.480469,992.472412 
	C554.876831,994.194824 557.891052,998.357300 557.090698,1003.922302 
	C556.112366,1010.724792 555.606873,1018.173401 546.929077,1021.016174 
z"/>
<path fill="#EBAF0C" opacity="1.000000" stroke="none" 
	d="
M857.690674,961.698730 
	C861.298279,960.089600 861.810364,958.315796 859.862732,955.007019 
	C857.757996,951.431396 855.908203,952.860657 853.632507,954.289856 
	C846.445801,958.803467 839.140015,963.138428 832.098999,967.868103 
	C828.974976,969.966675 827.752319,968.215942 826.954834,965.931885 
	C826.175659,963.700012 821.343262,961.758850 826.270020,958.776733 
	C834.806335,953.610046 843.141357,948.108215 851.718933,943.013184 
	C858.218384,939.152466 863.740723,940.741516 868.006531,947.062134 
	C872.154419,953.207947 875.974854,959.303833 869.855225,966.427490 
	C868.111938,968.456848 870.067322,968.853394 871.369446,969.423523 
	C875.896606,971.405884 880.435669,973.361206 885.989685,975.768799 
	C882.009521,978.237427 878.810791,980.160706 875.679871,982.188721 
	C874.101196,983.211182 872.797729,982.335144 871.470337,981.783936 
	C867.627502,980.188477 863.827393,978.490601 859.993713,976.872681 
	C858.335754,976.173096 856.767273,975.316101 854.774109,976.108582 
	C848.898376,978.444946 848.312622,980.019958 851.621399,985.355286 
	C852.235168,986.345032 852.837646,987.341858 853.458191,988.327332 
	C857.006104,993.961609 856.818176,993.692993 851.482544,997.464478 
	C848.059204,999.884216 846.541687,999.093140 844.687500,995.793213 
	C841.757935,990.579651 838.599060,985.466919 835.154480,980.581360 
	C833.116882,977.691284 833.943481,976.384644 836.590454,974.798950 
	C843.583557,970.609558 850.452332,966.212585 857.690674,961.698730 
z"/>
<path fill="#F2B307" opacity="1.000000" stroke="none" 
	d="
M499.942078,619.714417 
	C499.945648,612.753540 500.049927,606.254578 499.907043,599.761108 
	C499.848022,597.077148 500.484253,595.907593 503.475525,595.941467 
	C516.300842,596.087097 529.129089,596.057556 541.955322,595.967529 
	C544.418274,595.950317 545.655518,596.523071 545.578003,599.254700 
	C545.365723,606.741394 545.550232,614.245972 545.126892,621.717896 
	C544.822021,627.098572 542.503113,629.059631 537.057861,629.127441 
	C527.730713,629.243652 518.400818,629.175903 509.072388,629.126343 
	C502.476318,629.091370 500.289825,626.902100 499.942078,619.714417 
z"/>
<path fill="#F4B407" opacity="1.000000" stroke="none" 
	d="
M782.131592,598.243164 
	C782.141357,606.221375 782.199463,613.722290 782.095093,621.220886 
	C782.020935,626.552307 779.451172,629.175659 774.102112,629.239685 
	C764.603577,629.353516 755.101746,629.363159 745.603210,629.251404 
	C739.392029,629.178345 737.048035,626.978760 736.862854,620.900574 
	C736.644592,613.740417 736.789856,606.569763 736.714600,599.404358 
	C736.692871,597.335693 736.939148,595.952820 739.619507,595.973450 
	C752.951965,596.076050 766.285583,596.026306 779.618835,596.026917 
	C780.861450,596.026917 781.989868,596.167175 782.131592,598.243164 
z"/>
<path fill="#EBAF0C" opacity="1.000000" stroke="none" 
	d="
M449.824402,1002.687378 
	C460.278137,992.206848 470.488373,981.967163 480.696075,971.724915 
	C482.941223,969.472229 492.382294,970.785950 493.683533,973.604187 
	C494.463867,975.294250 492.714539,975.930969 491.907654,976.764526 
	C486.588562,982.259644 481.145752,987.634766 475.781982,993.087036 
	C475.026581,993.854980 473.515778,994.793640 474.392517,995.887817 
	C475.876953,997.740295 478.329224,998.316528 480.542633,998.852112 
	C482.449097,999.313354 481.774597,997.431824 482.055756,996.469971 
	C483.807953,990.474731 489.646942,988.031860 493.255432,982.845398 
	C494.728821,985.962341 494.082062,988.578491 493.988800,991.046326 
	C493.643433,1000.185791 492.985931,1009.314087 492.692963,1018.454529 
	C492.579590,1021.991089 492.011780,1023.509521 488.170349,1021.508301 
	C484.456848,1019.573853 479.503418,1018.995850 481.175171,1012.778076 
	C481.453003,1011.744751 480.445862,1010.997681 479.482544,1010.572327 
	C475.224091,1008.692261 470.957733,1006.830017 466.698975,1004.950684 
	C465.035889,1004.216797 463.939850,1005.045959 462.723938,1006.101379 
	C459.164734,1009.191162 452.441986,1007.518433 449.824402,1002.687378 
z"/>
<path fill="#EBAF0C" opacity="1.000000" stroke="none" 
	d="
M588.382935,1022.355225 
	C590.640625,1018.455139 592.716614,1014.882935 595.192383,1010.622986 
	C597.706970,1014.939697 597.716187,1019.299194 598.726501,1023.283203 
	C600.602905,1030.682251 601.890259,1038.228638 603.632629,1045.664551 
	C604.289917,1048.469727 604.133789,1049.663208 600.735229,1049.169800 
	C596.361694,1048.534668 591.475342,1049.079102 591.057007,1042.685425 
	C591.035828,1042.361450 590.979919,1041.882812 590.768921,1041.751709 
	C587.379150,1039.645752 583.382446,1040.297607 579.708862,1039.406494 
	C576.265930,1038.571289 572.490845,1037.217651 570.514954,1042.202026 
	C569.810730,1043.978516 559.987488,1044.075073 558.526917,1042.550415 
	C557.411804,1041.386475 558.374329,1040.350586 558.913208,1039.410522 
	C566.106384,1026.860352 573.402100,1014.368225 580.506897,1001.768494 
	C582.172607,998.814514 584.470825,999.919678 586.601501,1000.253723 
	C594.065857,1001.423828 594.051575,1001.486267 590.348755,1007.936707 
	C587.202881,1013.416992 584.064209,1018.901367 580.930664,1024.388672 
	C580.224243,1025.625732 578.638123,1027.290527 580.402893,1028.210327 
	C582.195312,1029.144531 584.601990,1029.275635 586.700684,1029.142822 
	C588.855286,1029.006470 587.815186,1027.157715 587.589478,1026.017456 
	C587.342590,1024.770752 587.613098,1023.723633 588.382935,1022.355225 
z"/>
<path fill="#EBAF0C" opacity="1.000000" stroke="none" 
	d="
M384.889130,915.050415 
	C381.435944,926.723022 376.109253,938.008789 371.607697,949.618958 
	C371.323853,950.351013 371.133301,951.243103 369.999573,951.191711 
	C367.250641,951.067200 361.842804,943.326477 363.057556,940.798584 
	C364.318207,938.175110 363.747772,936.569763 361.589417,934.853210 
	C359.254395,932.996216 357.043823,930.923828 355.066589,928.690796 
	C352.617462,925.924561 350.289734,924.435303 346.642670,926.868652 
	C345.012054,927.956604 336.933472,922.025146 336.937592,920.024841 
	C336.940338,918.693481 338.148804,918.536072 338.966003,918.138733 
	C351.974823,911.813904 364.992340,905.506470 378.041809,899.266052 
	C380.105499,898.279114 388.490570,904.073730 388.105591,906.192566 
	C387.838013,907.665283 386.206268,907.893799 385.063354,908.451782 
	C378.636414,911.589233 372.258453,914.845581 365.708069,917.704773 
	C361.798859,919.411072 361.744232,920.997559 364.973755,923.368042 
	C366.158905,924.237976 367.243011,925.245544 368.455933,926.259399 
	C371.556793,919.005371 378.904602,918.429932 384.889130,915.050415 
z"/>
<path fill="#EBAF0C" opacity="1.000000" stroke="none" 
	d="
M897.971130,942.983154 
	C901.167419,942.351074 902.855530,940.053955 905.151367,937.819763 
	C897.980957,934.021240 898.932556,926.454468 896.738770,920.044189 
	C899.764648,921.654541 902.810974,923.227905 905.812134,924.883118 
	C911.792236,928.181091 917.791199,931.449158 923.690369,934.887390 
	C925.898987,936.174561 930.186584,936.805908 929.717651,939.143494 
	C929.122864,942.108826 925.275391,943.760864 922.636780,945.756348 
	C921.895996,946.316528 920.991455,946.337036 920.314575,945.779053 
	C916.254395,942.432068 913.421631,944.802734 910.538452,947.670471 
	C909.011597,949.189209 907.264282,950.506775 905.517273,951.778809 
	C902.886780,953.694031 901.211853,955.650635 902.996704,959.231873 
	C903.951233,961.147156 897.026672,968.989258 895.044434,968.557007 
	C893.830933,968.292419 893.872681,967.024414 893.575195,966.165405 
	C888.838257,952.489258 884.137329,938.800476 879.489319,925.093872 
	C878.793274,923.041321 885.568298,915.386169 887.552124,915.910034 
	C888.939941,916.276611 888.837463,917.698486 889.210999,918.764221 
	C892.016357,926.767761 894.829224,934.768738 897.971130,942.983154 
z"/>
<path fill="#EBAF0C" opacity="1.000000" stroke="none" 
	d="
M679.215393,1020.100891 
	C680.012085,1017.506653 680.698547,1015.289612 681.395081,1013.039917 
	C683.299561,1012.919983 683.371704,1014.637878 683.851501,1015.645935 
	C688.425720,1025.255371 692.761108,1034.980713 697.462402,1044.526367 
	C699.080566,1047.811890 698.038513,1048.623291 694.969971,1048.725586 
	C691.006714,1048.857666 687.899963,1049.466553 684.520874,1044.954468 
	C680.863586,1040.070801 673.784729,1044.582275 668.232849,1043.968872 
	C665.847229,1043.705322 665.179138,1045.418701 664.907410,1047.433594 
	C664.566589,1049.961060 663.116577,1050.887817 660.503906,1051.041992 
	C651.969177,1051.545654 651.881592,1051.628662 654.330383,1043.306274 
	C657.848206,1031.350952 661.500305,1019.434937 665.140381,1007.516052 
	C665.918274,1004.968628 675.406311,1002.367493 677.231262,1004.216492 
	C678.383545,1005.383972 677.332275,1006.771301 676.988159,1007.928406 
	C674.904053,1014.936340 672.619995,1021.885010 670.561646,1028.900024 
	C670.207092,1030.108643 668.794006,1032.183594 670.825562,1032.717651 
	C672.974487,1033.282715 675.544739,1033.140015 677.698303,1032.510376 
	C679.436157,1032.002319 678.184509,1030.260010 677.733032,1029.132324 
	C676.459229,1025.950317 678.597351,1023.351501 679.215393,1020.100891 
z"/>
<path fill="#EBAF0C" opacity="1.000000" stroke="none" 
	d="
M801.599731,970.775146 
	C805.596191,969.016357 809.274780,967.471069 812.866943,965.745728 
	C815.515076,964.473816 816.876221,964.955200 818.049866,967.878418 
	C821.499023,976.469116 821.452087,974.576843 814.382996,977.726074 
	C805.082458,981.869446 805.054443,981.825928 809.148682,991.151855 
	C811.818665,997.233521 814.319153,1003.400696 817.271057,1009.343079 
	C819.001770,1012.827087 818.166138,1014.542969 814.653015,1015.510376 
	C813.865051,1015.727356 813.133179,1016.175659 812.402588,1016.567871 
	C809.805603,1017.962158 808.180115,1017.944275 806.845093,1014.580688 
	C803.601929,1006.409058 799.758423,998.477844 796.342346,990.371521 
	C795.127380,987.488342 793.768738,986.490234 790.764160,988.132141 
	C788.006042,989.639404 784.941528,990.577576 782.136719,992.010498 
	C779.383789,993.416931 778.167480,992.611023 776.988342,989.848755 
	C774.012268,982.876770 773.868042,982.948181 780.711304,979.948120 
	C787.560059,976.945679 794.400635,973.924377 801.599731,970.775146 
z"/>
<path fill="#EBAF0C" opacity="1.000000" stroke="none" 
	d="
M355.122803,888.838135 
	C354.151123,887.667114 353.360199,886.803955 352.712952,885.843933 
	C350.951599,883.231506 349.334625,882.921143 346.763336,885.224060 
	C340.204590,891.098206 333.218384,896.498108 326.713501,902.428101 
	C323.451691,905.401489 321.871826,903.620178 320.160828,901.107117 
	C318.626068,898.852844 314.673920,897.217407 319.190094,893.701965 
	C326.267548,888.192810 332.863434,882.069153 339.789185,876.358521 
	C341.925476,874.596924 342.384064,873.232178 340.271118,871.181763 
	C338.727173,869.683594 337.450287,867.909790 336.058136,866.255676 
	C331.588135,860.944336 332.422821,857.593750 338.729645,854.472595 
	C340.592346,853.550781 341.133362,854.790283 341.935730,855.732483 
	C350.555786,865.854736 359.120422,876.024292 367.781586,886.111145 
	C369.302490,887.882324 369.235443,888.946045 367.492462,890.596619 
	C361.492767,896.278076 361.565582,896.355652 356.323456,890.253723 
	C355.998566,889.875610 355.686890,889.486023 355.122803,888.838135 
z"/>
<path fill="#E9AE0C" opacity="1.000000" stroke="none" 
	d="
M623.189514,1036.185547 
	C623.779480,1032.600586 622.866455,1029.965088 621.123535,1027.304443 
	C616.243164,1019.854370 611.608215,1012.243469 606.548096,1004.172363 
	C610.883606,1004.172363 614.472473,1004.210022 618.059998,1004.157898 
	C620.139038,1004.127686 620.843262,1005.704712 621.729187,1007.082336 
	C623.705688,1010.155762 625.738708,1013.197754 627.584961,1016.348450 
	C629.000916,1018.764954 630.250671,1018.999329 631.886963,1016.594788 
	C633.101196,1014.810669 634.842102,1013.298035 635.702026,1011.375305 
	C638.835083,1004.370056 644.498840,1004.547180 650.726929,1005.438477 
	C653.879089,1005.889587 653.403625,1006.963867 651.949768,1008.843262 
	C648.797913,1012.917297 646.038818,1017.346619 642.540100,1021.089478 
	C636.264587,1027.802856 633.685242,1035.493896 634.144165,1044.603271 
	C634.433472,1050.344727 629.538635,1052.920288 624.073242,1050.493530 
	C622.541565,1049.813354 622.841187,1048.692017 622.857300,1047.617188 
	C622.911987,1043.960327 623.055359,1040.304932 623.189514,1036.185547 
z"/>
<path fill="#EAAE0C" opacity="1.000000" stroke="none" 
	d="
M1007.767456,817.584290 
	C1009.094910,815.041992 1010.285522,812.847412 1011.440674,810.634277 
	C1014.311951,805.133179 1018.837097,804.588379 1023.036499,809.154541 
	C1024.170410,810.387451 1023.393372,811.281860 1022.880615,812.258789 
	C1018.319885,820.948181 1013.879822,829.705505 1009.105591,838.276489 
	C1006.266357,843.373840 999.929565,845.138977 994.213867,842.315002 
	C984.675232,837.602112 975.350952,832.456787 965.894165,827.575439 
	C964.038818,826.617737 963.365845,825.610901 964.598328,823.712769 
	C965.229553,822.740662 965.762512,821.680298 966.179626,820.598022 
	C967.596863,816.920776 969.449402,816.019592 973.247437,818.221375 
	C980.866272,822.638245 988.869263,826.387390 996.570312,830.669983 
	C999.305908,832.191162 1000.589722,831.750427 1001.852234,828.994324 
	C1003.582642,825.216919 1005.676331,821.605835 1007.767456,817.584290 
z"/>
<path fill="#E9AE0D" opacity="1.000000" stroke="none" 
	d="
M944.413452,900.426147 
	C946.684570,905.100281 948.812073,909.425232 950.863586,913.785950 
	C951.972107,916.142212 946.829529,924.591431 944.321045,924.528625 
	C943.143372,924.499146 942.820251,923.378784 942.391541,922.480652 
	C936.156311,909.415527 929.896667,896.362061 923.700623,883.278381 
	C922.789307,881.354065 928.625244,872.820007 930.607483,873.145203 
	C932.158936,873.399658 932.332764,875.062500 932.879272,876.195312 
	C936.711426,884.138733 940.461792,892.121521 944.413452,900.426147 
z"/>
<path fill="#E8AE0F" opacity="1.000000" stroke="none" 
	d="
M922.194946,916.550415 
	C915.236145,913.690247 908.664612,910.888428 902.001282,908.325134 
	C899.249512,907.266602 898.594910,906.427368 900.815613,903.914612 
	C906.230347,897.787720 906.114746,897.692444 913.560852,900.841858 
	C914.785278,901.359741 915.999268,901.996582 917.283508,902.263611 
	C927.445190,904.376160 932.523132,911.277527 934.867737,921.182434 
	C930.393372,920.604797 926.628418,918.170959 922.194946,916.550415 
z"/>
<path fill="#EBAF0C" opacity="1.000000" stroke="none" 
	d="
M385.212067,914.925781 
	C385.183105,914.943237 385.172913,914.793762 385.172913,914.793762 
	C385.172913,914.793762 385.086334,914.995972 385.185120,914.926025 
	C385.283875,914.856018 385.241028,914.908325 385.212067,914.925781 
z"/>
<path fill="#030101" opacity="1.000000" stroke="none" 
	d="
M567.007202,426.250916 
	C567.286926,426.088593 567.613403,426.119324 567.771729,426.076538 
	C569.146179,425.522034 570.292480,424.856567 571.821167,424.236328 
	C572.110107,424.075806 572.035767,424.057281 572.034546,424.095520 
	C577.694946,422.010956 583.597473,421.045166 589.595520,421.033325 
	C623.882568,420.965485 658.170044,420.910156 692.456787,421.039001 
	C709.451660,421.102875 722.843567,428.231110 732.479980,442.915649 
	C732.686157,443.318268 732.751038,443.213745 732.691772,443.230103 
	C737.360596,450.080414 741.699951,457.164490 744.810303,464.875214 
	C747.297180,471.040466 744.513855,474.771210 737.748718,474.991638 
	C737.249817,475.007904 736.750122,475.000275 736.250793,474.998596 
	C673.678284,474.788513 611.109192,475.877045 548.536255,475.496826 
	C547.704041,475.491791 546.871460,475.510651 546.039612,475.493134 
	C537.917297,475.322327 535.765320,472.851746 537.071655,464.538147 
	C537.345764,464.307617 537.169983,464.228149 537.256226,464.275330 
	C543.365906,452.433167 549.085449,440.378479 559.845581,431.294128 
	C560.129028,431.076080 560.051147,431.070038 560.055969,431.108826 
	C561.137512,430.111298 562.497620,429.449677 563.872314,428.277069 
	C564.133606,428.092102 564.054260,428.054901 564.064331,428.097565 
	C564.633484,427.064911 565.874451,427.036957 567.007202,426.250916 
z"/>
<path fill="#040201" opacity="1.000000" stroke="none" 
	d="
M698.018921,534.961914 
	C695.730591,541.098572 693.644836,546.893250 691.401306,552.626282 
	C689.193542,558.267700 684.907410,561.551331 678.936584,561.981934 
	C653.642456,563.806091 628.329773,563.805908 603.027344,562.115723 
	C596.637146,561.688843 592.134827,558.392212 589.851318,552.284790 
	C587.110046,544.952942 584.237671,537.667236 581.654846,530.280090 
	C579.662231,524.580933 581.798767,521.706421 587.642639,522.268860 
	C614.725464,524.875122 641.851257,525.268921 669.008423,523.998291 
	C676.489502,523.648254 683.964233,523.044006 691.421875,522.343384 
	C700.084045,521.529602 701.940369,523.711243 699.090515,531.744202 
	C698.756287,532.686218 698.464111,533.643066 698.018921,534.961914 
z"/>
<path fill="#070402" opacity="1.000000" stroke="none" 
	d="
M527.059204,538.837769 
	C523.749817,532.210876 522.101013,525.392212 520.215637,518.676025 
	C519.024658,514.433289 521.961060,511.302887 526.412842,512.337402 
	C538.082153,515.049072 549.838928,517.236877 561.650146,519.190186 
	C563.753113,519.537964 565.116333,520.883057 565.823547,523.016785 
	C569.173401,533.124329 572.668884,543.183777 575.980164,553.303711 
	C577.295105,557.322327 575.553467,560.055847 571.243591,559.904663 
	C553.671204,559.288086 537.494263,555.429077 527.059204,538.837769 
z"/>
<path fill="#070402" opacity="1.000000" stroke="none" 
	d="
M740.481812,551.572998 
	C731.554199,557.520569 721.693054,559.027161 711.707031,559.854187 
	C705.915710,560.333801 704.007141,557.446472 705.873962,551.788635 
	C708.944031,542.483887 712.031921,533.184753 715.034607,523.858276 
	C715.935120,521.061462 717.509521,519.371155 720.543762,518.842468 
	C731.516174,516.930786 742.475952,514.960449 753.328430,512.401306 
	C757.388794,511.443817 760.651184,514.111633 759.768982,517.628845 
	C756.524902,530.562561 753.533875,543.745239 740.481812,551.572998 
z"/>
<path fill="#D1A223" opacity="1.000000" stroke="none" 
	d="
M537.184937,464.484253 
	C536.000488,472.262787 538.039856,474.922424 545.994812,474.902466 
	C609.070801,474.744415 672.146606,474.536163 735.222473,474.334045 
	C736.385437,474.330322 737.555359,474.273956 738.709595,474.136932 
	C744.928772,473.398865 746.896545,470.166199 744.038879,464.506805 
	C740.518921,457.535767 736.544128,450.794403 732.699219,443.600098 
	C733.343079,443.632172 734.392822,443.835693 734.712708,444.431274 
	C738.622742,451.711334 744.213684,458.124481 746.091675,466.458618 
	C747.343140,472.012482 744.890808,475.413422 739.160339,475.912109 
	C738.333862,475.984039 737.497681,475.956177 736.666016,475.956451 
	C672.609741,475.978119 608.553528,476.003510 544.497253,476.010864 
	C536.531677,476.011749 533.572632,471.542725 537.184937,464.484253 
z"/>
<path fill="#D1A223" opacity="1.000000" stroke="none" 
	d="
M732.737671,442.950195 
	C725.764526,434.358398 717.773132,426.895813 706.394165,423.926056 
	C702.058472,422.794434 697.743713,421.891510 693.235352,421.895172 
	C658.445984,421.923462 623.656433,421.957336 588.867310,421.861511 
	C583.320679,421.846222 578.067078,423.311188 572.358521,424.133606 
	C576.858826,420.097931 583.014709,420.314026 588.499207,420.254730 
	C623.463501,419.876434 658.434753,419.923859 693.401733,420.143005 
	C703.709167,420.207581 713.585632,422.940002 721.788940,429.469635 
	C726.238892,433.011688 730.792480,436.819580 732.737671,442.950195 
z"/>
<path fill="#D1A223" opacity="1.000000" stroke="none" 
	d="
M559.782593,431.121948 
	C550.258728,440.367401 544.480225,452.406006 537.773315,464.197266 
	C536.330994,459.605865 540.431702,456.955933 542.203247,453.449554 
	C546.488403,444.968079 550.837524,436.377838 559.782593,431.121948 
z"/>
<path fill="#D1A223" opacity="1.000000" stroke="none" 
	d="
M563.779663,428.086060 
	C563.487732,429.646667 561.761536,429.892426 560.376221,431.040405 
	C560.644958,429.535431 561.398010,428.108582 563.779663,428.086060 
z"/>
<path fill="#D1A223" opacity="1.000000" stroke="none" 
	d="
M571.756165,424.064758 
	C571.394348,425.679840 569.867126,425.937164 568.168762,426.170227 
	C568.705505,424.703949 569.866821,424.050903 571.756165,424.064758 
z"/>
<path fill="#D1A223" opacity="1.000000" stroke="none" 
	d="
M566.920654,426.086548 
	C566.935547,427.366119 566.105713,428.049072 564.424744,428.124939 
	C564.280884,426.706787 565.184387,426.114197 566.920654,426.086548 
z"/>
</svg>